# xmcd CD database file generated by OrangeCD 4.2
#
# Track frame offsets:
#	150
#	12005
#	28427
#	43295
#	56132
#	68507
#	81105
#	95480
#	108855
#	123255
#	138542
#	153437
#	168622
#	184225
#	199205
#	214717
#	229430
#
# Disc length: 3234 seconds
#
# Revision: 4
# Processed by: cddbd v1.4PL0 Copyright (c) Steve Scherf et al.
# Submitted via: OrangeCD 4.2
#
DISCID=f50ca011
DTITLE=Tampa Red - The Guitar Wizard
DYEAR=1994
DGENRE=Blues
TTITLE0=(Honey) It's Tight Like That
TTITLE1=Big Fat Mama
TTITLE2=No Matter How She Done It
TTITLE3=Reckless Man Blues
TTITLE4=Don't Leave Me Here
TTITLE5=Dead Cats On The Line
TTITLE6=Things 'Bout Comin' My Way
TTITLE7=You Can't Get That Stuff No More
TTITLE8=If You Want Me To Love You
TTITLE9=Turpentine Blues
TTITLE10=Western Bound Blues
TTITLE11=That Stuff Is Here
TTITLE12=Sugar Mama Blues No 1
TTITLE13=Sugar Mama Blues No 2
TTITLE14=Black Angel Blues
TTITLE15=Things 'Bout Comin' My Way
TTITLE16=Denver Blues
EXTD=
EXTT0=
EXTT1=
EXTT2=
EXTT3=
EXTT4=
EXTT5=
EXTT6=
EXTT7=
EXTT8=
EXTT9=
EXTT10=
EXTT11=
EXTT12=
EXTT13=
EXTT14=
EXTT15=
EXTT16=
PLAYORDER=
